<svg width="45" height="45" viewBox="0 0 45 45" fill="none" xmlns="http://www.w3.org/2000/svg">
<path d="M22.4271 0C18.0339 0 13.7393 1.30276 10.0864 3.74353C6.43351 6.1843 3.58644 9.65346 1.90521 13.7123C0.22398 17.7712 -0.215907 22.2374 0.641178 26.5463C1.49826 30.8551 3.61382 34.8131 6.72034 37.9196C9.82685 41.0261 13.7848 43.1416 18.0936 43.9987C22.4025 44.8558 26.8687 44.4159 30.9276 42.7347C34.9864 41.0535 38.4556 38.2064 40.8964 34.5535C43.3371 30.9006 44.6399 26.606 44.6399 22.2128C44.6399 16.3216 42.2996 10.6717 38.1339 6.50597C33.9682 2.34027 28.3183 0 22.4271 0V0ZM22.4271 40.127C18.884 40.127 15.4205 39.0763 12.4745 37.1079C9.52855 35.1395 7.23244 32.3416 5.87656 29.0682C4.52067 25.7948 4.16591 22.1929 4.85714 18.7179C5.54836 15.2429 7.25452 12.0509 9.75987 9.54551C12.2652 7.04016 15.4572 5.33399 18.9322 4.64277C22.4073 3.95155 26.0092 4.30631 29.2826 5.66219C32.556 7.01808 35.3538 9.31419 37.3223 12.2602C39.2907 15.2061 40.3413 18.6697 40.3413 22.2128C40.3422 24.5655 39.8793 26.8954 38.9793 29.0692C38.0794 31.243 36.7598 33.2182 35.0962 34.8818C33.4325 36.5455 31.4574 37.865 29.2836 38.765C27.1097 39.665 24.7799 40.1278 22.4271 40.127V40.127ZM31.5451 16.6427L25.9735 22.2128L31.5451 27.7843C31.6456 27.884 31.7254 28.0026 31.7798 28.1333C31.8343 28.264 31.8623 28.4041 31.8623 28.5457C31.8623 28.6873 31.8343 28.8274 31.7798 28.9581C31.7254 29.0888 31.6456 29.2074 31.5451 29.3071L29.5214 31.3307C29.4217 31.4312 29.3031 31.511 29.1725 31.5655C29.0418 31.6199 28.9016 31.6479 28.7601 31.6479C28.6185 31.6479 28.4783 31.6199 28.3477 31.5655C28.217 31.511 28.0984 31.4312 27.9987 31.3307L22.4271 25.7592L16.8556 31.3307C16.7559 31.4312 16.6373 31.511 16.5066 31.5655C16.3759 31.6199 16.2358 31.6479 16.0942 31.6479C15.9526 31.6479 15.8125 31.6199 15.6818 31.5655C15.5511 31.511 15.4325 31.4312 15.3328 31.3307L13.3092 29.3071C13.2087 29.2074 13.1289 29.0888 13.0744 28.9581C13.02 28.8274 12.992 28.6873 12.992 28.5457C12.992 28.4041 13.02 28.264 13.0744 28.1333C13.1289 28.0026 13.2087 27.884 13.3092 27.7843L18.8807 22.2128L13.3092 16.6412C13.2087 16.5415 13.1289 16.4229 13.0744 16.2922C13.02 16.1616 12.992 16.0214 12.992 15.8798C12.992 15.7383 13.02 15.5981 13.0744 15.4674C13.1289 15.3368 13.2087 15.2182 13.3092 15.1185L15.3328 13.0948C15.4325 12.9943 15.5511 12.9145 15.6818 12.8601C15.8125 12.8056 15.9526 12.7776 16.0942 12.7776C16.2358 12.7776 16.3759 12.8056 16.5066 12.8601C16.6373 12.9145 16.7559 12.9943 16.8556 13.0948L22.4271 18.6664L27.9987 13.0948C28.0984 12.9943 28.217 12.9145 28.3477 12.8601C28.4783 12.8056 28.6185 12.7776 28.7601 12.7776C28.9016 12.7776 29.0418 12.8056 29.1725 12.8601C29.3031 12.9145 29.4217 12.9943 29.5214 13.0948L31.5451 15.1185C31.6456 15.2182 31.7254 15.3368 31.7798 15.4674C31.8343 15.5981 31.8623 15.7383 31.8623 15.8798C31.8623 16.0214 31.8343 16.1616 31.7798 16.2922C31.7254 16.4229 31.6456 16.5415 31.5451 16.6412V16.6427Z" fill="white"/>
</svg>
