<svg width="37" height="38" viewBox="0 0 37 38" fill="none" xmlns="http://www.w3.org/2000/svg">
<path d="M18.5082 9.56642C13.2555 9.56642 9.01871 13.7746 9.01871 18.9918C9.01871 24.209 13.2555 28.4172 18.5082 28.4172C23.7609 28.4172 27.9977 24.209 27.9977 18.9918C27.9977 13.7746 23.7609 9.56642 18.5082 9.56642ZM18.5082 25.1195C15.1138 25.1195 12.3388 22.3715 12.3388 18.9918C12.3388 15.6121 15.1055 12.8641 18.5082 12.8641C21.9109 12.8641 24.6776 15.6121 24.6776 18.9918C24.6776 22.3715 21.9026 25.1195 18.5082 25.1195ZM30.5993 9.18087C30.5993 10.4031 29.6082 11.3793 28.3859 11.3793C27.1553 11.3793 26.1725 10.3949 26.1725 9.18087C26.1725 7.96681 27.1636 6.98243 28.3859 6.98243C29.6082 6.98243 30.5993 7.96681 30.5993 9.18087ZM36.8843 11.4121C36.7439 8.4672 36.0667 5.85861 33.8946 3.70939C31.7308 1.56017 29.1044 0.887512 26.1395 0.739856C23.0837 0.56759 13.9245 0.56759 10.8687 0.739856C7.91202 0.879309 5.28568 1.55197 3.11358 3.70118C0.941486 5.8504 0.272513 8.459 0.123852 11.4039C-0.0495849 14.4391 -0.0495849 23.5363 0.123852 26.5715C0.264254 29.5164 0.941486 32.125 3.11358 34.2742C5.28568 36.4234 7.90376 37.0961 10.8687 37.2438C13.9245 37.416 23.0837 37.416 26.1395 37.2438C29.1044 37.1043 31.7308 36.4316 33.8946 34.2742C36.0584 32.125 36.7357 29.5164 36.8843 26.5715C37.0578 23.5363 37.0578 14.4473 36.8843 11.4121ZM32.9366 29.8281C32.2924 31.4359 31.0453 32.6746 29.4183 33.3227C26.9819 34.2824 21.2006 34.0609 18.5082 34.0609C15.8158 34.0609 10.0263 34.2742 7.59818 33.3227C5.97943 32.6828 4.73233 31.4441 4.07988 29.8281C3.11358 27.4082 3.33657 21.666 3.33657 18.9918C3.33657 16.3176 3.12184 10.5672 4.07988 8.15548C4.72407 6.54767 5.97117 5.309 7.59818 4.66095C10.0346 3.70118 15.8158 3.92267 18.5082 3.92267C21.2006 3.92267 26.9901 3.70939 29.4183 4.66095C31.037 5.30079 32.2841 6.53946 32.9366 8.15548C33.9029 10.5754 33.6799 16.3176 33.6799 18.9918C33.6799 21.666 33.9029 27.4164 32.9366 29.8281Z" fill="#F0C530"/>
</svg>
