<svg width="258" height="568" viewBox="0 0 258 568" fill="none" xmlns="http://www.w3.org/2000/svg">
<path d="M98.8976 130.692C99.0845 130.879 99.2714 131.159 99.4583 131.439C100.58 133.962 99.6452 135.924 100.019 138.634C100.206 139.848 103.009 141.156 101.14 142.838C100.393 143.492 98.4304 144.707 96.9352 146.015C94.6925 147.883 93.0104 151.621 92.2628 154.891C89.1791 167.504 89.5529 180.678 90.3939 193.666C90.3939 194.413 90.4873 195.16 90.8611 195.815C91.5153 196.936 93.0104 197.309 94.3187 197.59C100.393 198.804 106.28 200.58 111.98 202.915C117.12 204.971 122.073 207.587 125.81 211.605C129.548 215.716 131.698 221.509 130.203 226.741C129.081 230.758 125.997 234.029 122.073 235.43C112.447 238.887 102.355 227.769 95.3466 222.536C88.7118 217.584 82.4509 212.165 76.5637 206.279C75.8161 205.532 75.0685 204.784 74.6947 203.85C74.3209 202.822 74.3209 201.701 74.3209 200.58C74.8816 186.565 76.6571 172.643 78.8064 158.722C79.3671 154.891 81.8902 151.901 82.3574 148.351C82.6378 146.108 81.3295 144.053 81.1426 141.904C80.9557 139.755 81.3295 136.858 81.9836 134.709C83.2919 130.598 87.497 129.103 90.9546 127.515C91.7956 127.141 92.4498 126.861 93.3842 126.861C94.8794 126.954 96.0008 127.889 97.0287 128.73C97.6828 129.477 98.3369 130.038 98.8976 130.692Z" fill="#EACDB0"/>
<path d="M93.1039 229.077C91.048 227.115 88.9922 224.966 87.2167 222.817C81.7033 216.183 76.0964 209.549 70.583 202.915C70.1158 202.355 69.5551 201.701 69.2747 200.953C68.8075 199.739 69.0879 198.337 69.3682 197.029C71.5175 187.125 72.7323 176.941 73.0126 166.757C79.2736 169.373 86.1887 170.494 93.0104 169.934C93.0104 176.754 93.0104 183.575 93.0104 190.395C93.0104 191.143 93.0104 191.984 93.4776 192.638C93.8514 193.292 94.599 193.572 95.2532 193.946C111.233 201.701 128.707 204.878 145.621 209.923C153.845 212.352 162.255 214.968 168.703 220.668C182.346 232.721 174.59 255.425 155.714 254.864C133.38 254.023 109.551 244.773 93.1039 229.077Z" fill="#E0B1B5"/>
<path d="M159.732 533.201L160.012 553.943L145.621 554.036L145.341 531.052L159.732 533.201Z" fill="#EACDB0"/>
<path d="M146.743 550.86L157.396 554.41L160.573 557.867L160.012 565.996L131.137 568.238C128.707 564.688 130.296 559.829 134.314 558.428L135.622 557.96L146.743 550.86Z" fill="#4D4D4D"/>
<path d="M248.227 513.3L256.357 532.36L245.049 537.218L236.078 516.009L248.227 513.3Z" fill="#EACDB0"/>
<path d="M243.181 537.499C243.554 537.031 244.022 536.658 244.582 536.191C245.984 535.163 256.917 529.37 257.852 531.986C258.039 532.453 257.945 532.92 257.945 533.294C257.011 540.862 255.235 548.243 252.712 555.344C251.591 558.428 249.909 561.791 246.732 562.539C245.33 562.912 243.928 562.632 242.526 562.352C240.471 561.885 238.508 561.324 236.546 560.483C235.798 560.203 235.051 559.829 234.677 559.175C233.929 557.867 235.237 556.279 236.546 555.531C237.854 554.784 239.536 554.317 240.19 552.915C240.471 552.261 240.564 551.607 240.564 550.86C240.938 545.908 240.003 541.049 243.181 537.499Z" fill="#4D4D4D"/>
<path d="M168.983 437.152C173.002 455.558 184.496 468.825 196.831 482.373C210.941 497.883 224.117 514.14 236.452 531.052C241.779 528.809 247.105 526.567 252.432 524.418C247.946 498.537 235.705 474.805 226.173 450.326C219.538 433.321 214.212 415.288 213.932 396.882C213.745 387.726 215.987 379.41 217.202 370.441C218.697 359.416 218.791 348.11 220.099 337.085C220.566 333.348 220.753 328.956 217.95 326.527C216.641 325.406 214.959 325.032 213.371 324.658C152.723 312.979 161.321 402.114 168.983 437.152Z" fill="#627277"/>
<path d="M218.417 340.542C218.417 329.33 217.109 318.585 214.959 310.363C197.672 309.429 178.235 311.391 161.134 314.848C144.5 318.212 134.034 321.856 133.94 339.888C133.754 373.15 120.764 401.46 115.064 433.414C111.793 452.008 117.4 468.639 123.661 485.83C130.763 505.545 136.931 525.633 141.883 545.908C147.677 545.908 153.471 545.814 159.171 545.814C164.872 520.12 162.535 493.492 163.003 467.237C163.376 449.018 165.245 430.331 171.88 413.139C179.262 394.359 189.915 401.834 202.064 390.902C214.118 380.345 218.324 359.789 218.417 340.542Z" fill="#627277"/>
<path d="M198.793 212.539C200.662 214.034 202.344 215.809 204.026 217.584C205.521 219.173 207.016 220.761 208.512 222.349C213.651 227.862 216.174 235.897 218.417 242.905C230.004 279.717 234.116 330.171 226.64 368.665C198.139 371.095 165.152 363.9 136.65 360.07C133.847 359.696 130.763 359.042 129.268 356.706C128.427 355.211 128.334 353.436 128.334 351.754C128.334 327.368 133.473 301.113 138.332 277.008C140.388 266.824 142.911 256.826 146.089 246.922C149.546 236.458 153.378 225.246 161.321 217.398C169.918 208.989 186.271 204.784 196.924 211.418C197.672 211.698 198.232 212.072 198.793 212.539Z" fill="#E0B1B5"/>
<path d="M187.766 210.764C187.579 211.138 187.392 211.418 187.019 211.792C185.804 213.1 184.028 213.847 182.253 214.127C179.917 214.501 177.58 214.221 175.244 213.847C172.16 213.38 172.16 211.511 171.693 208.708C171.413 207.213 171.226 205.625 171.039 204.037C170.946 203.196 171.226 200.112 170.665 199.552C170.292 199.178 168.796 199.365 168.142 198.991C167.114 198.431 166.18 197.496 165.526 196.562C164.498 194.974 163.844 193.198 163.283 191.423C162.255 188.34 161.227 185.257 160.199 182.173C159.171 178.997 158.143 175.82 157.676 172.55C157.115 167.598 157.676 160.59 161.414 156.853C164.778 153.489 169.731 152.181 174.31 151.434C180.384 150.5 186.645 151.434 191.971 154.517C194.121 155.732 196.177 157.414 197.485 159.656C199.541 163.206 199.447 167.691 199.354 171.802C199.26 175.633 199.167 179.557 199.073 183.388C198.98 187.779 198.513 192.918 195.242 195.441C193.467 196.749 191.224 197.123 189.729 198.804C187.86 200.86 188.047 203.943 188.047 206.559C188.233 208.054 188.327 209.456 187.766 210.764Z" fill="#EACDB0"/>
<path d="M167.301 161.431C167.114 161.805 166.927 162.179 166.834 162.552C166.18 164.608 166.741 166.944 166.086 168.999C165.058 172.269 161.321 174.325 160.853 177.689C160.48 180.492 162.442 183.014 162.629 185.817C162.909 188.901 161.04 191.797 161.414 194.787C161.788 197.403 163.47 201.047 165.152 203.102C164.685 202.448 160.293 202.822 159.078 202.168C157.302 201.14 157.115 200.486 156.555 198.711C155.994 196.936 156.368 195.161 155.527 193.292C154.499 191.049 152.443 189.461 151.602 187.032C150.574 183.762 152.256 180.211 151.976 176.848C151.602 171.615 147.023 166.85 148.518 161.898C149.359 159.002 152.163 157.04 153.658 154.424C154.779 152.368 155.153 150.032 155.994 147.883C156.742 145.734 158.143 143.492 160.386 142.745C161.601 142.371 162.909 142.464 164.217 142.184C166.367 141.717 168.142 140.128 170.292 139.381C173.282 138.26 178.702 141.156 180.477 143.679C182.253 146.202 181.505 148.351 179.73 150.686C176.739 154.517 169.637 157.133 167.301 161.431Z" fill="#534741"/>
<path d="M207.484 144.987C209.353 146.295 211.595 147.136 213.277 148.631C216.548 151.527 217.296 156.386 217.576 160.777C217.763 164.701 219.632 168.158 219.258 172.269C219.071 175.072 217.95 177.875 215.707 179.557C212.997 181.613 208.605 182.08 207.484 185.35C206.175 188.901 209.913 193.198 207.857 196.282C206.736 197.964 204.306 198.244 202.624 199.458C200.755 200.767 199.821 203.009 198.7 205.064C197.578 207.12 195.803 209.082 193.56 209.175C193.373 205.718 193.186 202.915 194.588 199.645C195.429 197.777 197.859 194.226 195.896 192.264C194.588 190.582 191.691 190.115 191.504 188.06C191.411 187.125 192.065 186.191 192.625 185.35C194.588 182.173 194.775 177.875 193.186 174.418C191.691 170.961 188.701 168.158 185.243 166.663C181.225 164.795 181.786 163.86 180.571 160.03C179.449 156.573 177.394 155.732 174.216 154.517C171.319 153.396 170.385 152.742 169.264 150.126C168.423 148.164 167.395 145.921 168.516 143.679C169.357 141.904 170.946 140.689 172.441 139.381C175.618 136.858 179.169 134.149 183.281 134.336C185.523 134.429 187.673 135.457 189.915 135.55C191.411 135.644 192.906 135.27 194.401 135.177C196.924 134.99 199.727 135.737 201.783 137.232C203.933 138.727 203.933 140.315 205.147 142.464C205.615 143.586 206.549 144.333 207.484 144.987Z" fill="#534741"/>
<path d="M198.046 130.879C197.578 128.449 197.765 125.273 200.101 124.338C201.41 123.871 202.811 124.338 204.12 123.965C206.923 123.311 207.764 119.854 209.259 117.331C209.446 116.957 209.726 116.583 210.1 116.397C210.661 116.116 211.315 116.303 211.969 116.397C214.773 116.677 216.828 113.874 219.445 112.753C222.716 111.445 226.827 113.407 227.949 116.677C228.416 118.078 228.322 119.573 228.79 120.881C230.472 126.487 238.789 128.636 239.162 134.523C239.443 138.447 235.611 142.371 237.2 145.921C238.228 148.257 241.218 149.752 240.938 152.275C240.751 153.863 239.069 154.984 237.48 155.078C235.892 155.078 234.303 154.237 233.088 153.209C231.126 151.527 229.631 149.472 227.668 147.697C225.799 145.921 223.276 144.52 220.753 144.987C218.324 145.361 216.081 147.323 213.651 146.949C211.689 146.669 210.194 144.987 208.231 144.52C206.456 144.146 204.587 144.894 202.718 144.987C200.849 145.174 198.513 144.24 198.419 142.371C198.419 141.904 198.513 141.437 198.326 141.063C197.859 139.848 195.803 140.035 195.429 138.82C196.363 137.326 197.765 137.793 198.419 135.831C198.887 134.336 198.326 132.374 198.046 130.879Z" fill="#534741"/>
<path d="M61.6121 260.564L61.8924 273.644C61.9858 277.942 65.4434 281.306 69.5551 281.212L103.103 280.371C107.214 280.278 110.579 276.727 110.392 272.523L110.111 259.442L61.6121 260.564Z" fill="#73726F"/>
<path d="M163.096 82.1067C161.975 36.0442 124.689 -0.48803 79.6475 0.633165C34.6992 1.75436 -0.904307 39.9684 0.217063 86.0309C0.590853 102.382 5.54358 117.611 13.8604 130.225C37.4092 168.626 43.4832 201.047 43.4832 201.047L84.4133 200.019L125.343 198.991C125.343 198.991 129.829 166.29 151.509 126.861C159.265 113.874 163.563 98.5509 163.096 82.1067Z" fill="#FFCE01"/>
<path d="M42.6422 201.14L43.9505 256.826C44.0439 259.162 45.8194 261.031 48.0622 260.937L123.848 259.162C126.091 259.069 127.773 257.2 127.773 254.864L126.465 199.178L42.6422 201.14Z" fill="#B1B0AE"/>
<path d="M161.321 66.5968C141.603 108.548 103.009 173.484 43.4833 200.953C43.4833 201.047 43.4833 201.14 43.4833 201.14L84.4133 200.112L125.343 199.085C125.343 199.085 129.829 166.383 151.509 126.954C159.171 113.874 163.376 98.4574 163.003 82.1067C163.003 76.781 162.348 71.6422 161.321 66.5968Z" fill="#FDBE0F"/>
<path d="M13.767 92.5712C12.8325 52.3016 43.8571 18.946 83.105 18.0117C106.093 17.4511 126.745 28.1024 140.108 45.1072C127.306 23.5242 103.944 9.41585 77.5916 10.0699C38.3437 11.0042 7.31912 44.3598 8.2536 84.6294C8.62739 101.354 14.5146 116.583 24.0462 128.73C17.8787 118.172 14.1408 105.839 13.767 92.5712Z" fill="#FFDF4D"/>
<path d="M68.7141 200.486L56.2855 93.9726L70.3027 105.278L81.7967 85.5637L94.4121 104.157L107.682 92.5712L100.299 199.739L104.504 199.645L112.541 82.7607L95.1597 97.8034L81.5164 77.6219L69.0879 98.9246L50.8656 84.0688L64.5089 200.58L68.7141 200.486Z" fill="#F6F7F7"/>
<path d="M63.2007 190.022L64.4155 200.673L68.6206 200.58L67.1255 187.406C65.8172 188.246 64.5089 189.181 63.2007 190.022Z" fill="#EDECED"/>
<path d="M103.383 155.638L100.393 199.739L104.598 199.645L107.962 150.593C106.373 152.275 104.878 153.957 103.383 155.638Z" fill="#EDECED"/>
<path d="M126.698 212.936L42.9009 214.943L43.1471 225.217L126.944 223.21L126.698 212.936Z" fill="#888583"/>
<path d="M127.259 234.891L43.4618 236.899L43.708 247.173L127.505 245.166L127.259 234.891Z" fill="#888583"/>
<path d="M89.366 235.804L127.212 234.87L126.932 223.19L103.57 223.751C98.8976 228.329 94.1318 232.347 89.366 235.804Z" fill="#96928D"/>
<path d="M126.745 212.913L126.371 199.085H125.063C121.325 204.224 117.587 208.895 113.756 213.193L126.745 212.913Z" fill="#96928D"/>
<path d="M48.0622 260.937L123.848 259.162C126.091 259.069 127.773 257.2 127.773 254.864L127.586 245.241L72.8258 246.549C61.8924 252.528 51.987 255.985 44.1374 257.947C44.6046 259.629 46.1932 260.937 48.0622 260.937Z" fill="#96928D"/>
<path d="M103.663 223.751L127.025 223.19L126.745 212.913L113.756 213.193C110.392 217.024 107.028 220.574 103.663 223.751Z" fill="#73726F"/>
<path d="M72.8258 246.455L127.586 245.147L127.306 234.87L89.4595 235.804C83.6657 240.102 78.1523 243.559 72.8258 246.455Z" fill="#73726F"/>
<path d="M110.392 267.384C101.14 276.914 83.105 280.184 77.1243 281.025L103.196 280.371C107.308 280.278 110.672 276.727 110.485 272.523L110.392 267.384Z" fill="#5D5A59"/>
<path d="M67.0321 276.354C67.3124 276.26 67.5927 276.073 67.8731 276.073C70.5831 275.7 72.2651 277.101 74.9751 277.475C76.1899 277.662 78.2458 275.232 79.2737 277.568C79.6475 278.409 80.3016 280.652 81.1426 282.52C82.3575 285.23 85.4412 287.846 88.3381 289.528C99.6452 295.975 112.448 299.151 125.156 301.954C125.904 302.141 126.652 302.235 127.399 302.048C128.707 301.674 129.455 300.366 130.016 299.245C132.819 293.732 136.183 288.593 140.015 283.735C143.379 279.437 147.303 275.232 152.163 272.803C157.115 270.374 163.283 269.907 167.955 272.71C171.506 274.859 173.843 278.783 174.123 282.894C174.777 293.078 161.414 299.712 154.405 305.038C147.771 310.083 140.856 314.568 133.66 318.679C132.726 319.146 131.885 319.707 130.857 319.8C129.735 319.893 128.707 319.613 127.679 319.239C114.316 314.848 101.514 309.336 88.6184 303.449C85.0674 301.861 82.8247 298.591 79.554 297.189C77.4982 296.255 75.162 297.002 73.0127 296.629C70.8634 296.161 68.1534 295.04 66.3779 293.919C62.7335 291.583 62.5466 287.098 61.8924 283.268C61.7056 282.333 61.6121 281.679 61.8924 280.838C62.3597 279.437 63.5745 278.69 64.6959 277.849C65.5369 277.195 66.2845 276.727 67.0321 276.354Z" fill="#EACDB0"/>
<path d="M201.503 256.92C201.597 256.546 201.783 256.172 201.877 255.705C207.577 237.766 187.953 223.938 172.534 233.842C165.339 238.42 160.48 245.895 155.901 253.089C150.107 262.152 144.967 271.589 139.267 280.652C130.296 294.853 115.438 293.639 100.486 290.182C97.4959 297.283 93.9449 304.197 89.8333 310.737C100.58 315.689 111.42 320.641 123.007 322.977C134.595 325.313 147.117 324.845 157.489 319.333C165.713 314.942 171.974 307.841 177.861 300.553C188.514 287.659 198.419 273.27 201.503 256.92Z" fill="#E0B1B5"/>
</svg>
