<svg width="266" height="66" viewBox="0 0 266 66" fill="none" xmlns="http://www.w3.org/2000/svg">
<g clip-path="url(#clip0)">
<path d="M70.2821 43.6334V25.0726H83.5249V28.8265H75.0526V32.3196H82.9774V36.0735H75.0526V39.8795H83.5249V43.6334H70.2821ZM85.7541 43.6334V34.1966C85.7541 33.5709 85.7367 32.9366 85.702 32.2936C85.6846 31.6505 85.6325 31.0162 85.5456 30.3906H89.9772L90.29 32.8931L89.9772 32.6846C90.3596 31.8504 90.9244 31.1987 91.6717 30.7295C92.4364 30.2602 93.3401 30.0256 94.3828 30.0256C95.5646 30.0256 96.503 30.3384 97.1982 30.9641C97.9107 31.5723 98.38 32.4847 98.6059 33.7013L97.9803 32.8671C98.4147 32.0155 99.0404 31.329 99.8572 30.8077C100.691 30.2863 101.612 30.0256 102.62 30.0256C104.167 30.0256 105.305 30.5035 106.035 31.4594C106.765 32.3978 107.13 33.8229 107.13 35.7346V43.6334H102.412V35.8649C102.412 35.1003 102.299 34.5441 102.073 34.1966C101.847 33.8316 101.447 33.6491 100.874 33.6491C100.213 33.6491 99.7008 33.8924 99.3358 34.379C98.9709 34.8657 98.7884 35.5521 98.7884 36.4385V43.6334H94.07V35.8649C94.07 35.1003 93.9483 34.5441 93.705 34.1966C93.4791 33.8316 93.0881 33.6491 92.5319 33.6491C91.8715 33.6491 91.3589 33.8924 90.9939 34.379C90.6463 34.8657 90.4725 35.5521 90.4725 36.4385V43.6334H85.7541ZM109.862 49.2642V34.1966C109.862 33.5709 109.845 32.9366 109.81 32.2936C109.793 31.6505 109.741 31.0162 109.654 30.3906H114.085L114.398 32.8671L114.242 32.7107C114.52 31.9112 115.059 31.2682 115.858 30.7816C116.658 30.2776 117.57 30.0256 118.595 30.0256C119.742 30.0256 120.75 30.321 121.619 30.9119C122.506 31.5028 123.201 32.3283 123.705 33.3884C124.209 34.4312 124.461 35.6477 124.461 37.038C124.461 38.411 124.209 39.6101 123.705 40.6355C123.201 41.6608 122.506 42.4516 121.619 43.0077C120.75 43.5638 119.742 43.8419 118.595 43.8419C117.57 43.8419 116.658 43.6073 115.858 43.1381C115.059 42.6688 114.52 42.0258 114.242 41.209L114.581 40.6094V49.2642H109.862ZM117.162 40.3227C118.013 40.3227 118.656 40.0446 119.091 39.4885C119.525 38.915 119.742 38.0981 119.742 37.038C119.742 35.9432 119.516 35.1003 119.065 34.5094C118.63 33.9011 117.996 33.597 117.162 33.597C116.31 33.597 115.658 33.8837 115.206 34.4572C114.755 35.0308 114.529 35.8736 114.529 36.9859C114.529 38.0634 114.755 38.8889 115.206 39.4624C115.658 40.0359 116.31 40.3227 117.162 40.3227ZM133.338 43.8419C131.843 43.8419 130.549 43.5638 129.454 43.0077C128.376 42.4516 127.542 41.6608 126.951 40.6355C126.36 39.5927 126.065 38.3588 126.065 36.9338C126.065 35.5261 126.36 34.3095 126.951 33.2842C127.542 32.2414 128.376 31.442 129.454 30.8859C130.549 30.3124 131.843 30.0256 133.338 30.0256C134.798 30.0256 136.066 30.3124 137.144 30.8859C138.239 31.442 139.082 32.2414 139.673 33.2842C140.263 34.3095 140.559 35.5261 140.559 36.9338C140.559 38.3588 140.263 39.5927 139.673 40.6355C139.082 41.6608 138.239 42.4516 137.144 43.0077C136.066 43.5638 134.798 43.8419 133.338 43.8419ZM133.338 40.3227C134.155 40.3227 134.78 40.0533 135.215 39.5145C135.667 38.9758 135.893 38.1155 135.893 36.9338C135.893 35.7694 135.675 34.9178 135.241 34.379C134.806 33.8403 134.172 33.5709 133.338 33.5709C132.486 33.5709 131.835 33.8403 131.383 34.379C130.948 34.9178 130.731 35.7694 130.731 36.9338C130.731 38.1155 130.948 38.9758 131.383 39.5145C131.835 40.0533 132.486 40.3227 133.338 40.3227ZM156.726 43.6334H152.085V40.5312L152.398 41.209C152.103 42.0258 151.547 42.6688 150.73 43.1381C149.93 43.6073 149.027 43.8419 148.019 43.8419C146.889 43.8419 145.881 43.5552 144.995 42.9816C144.126 42.3908 143.439 41.574 142.935 40.5312C142.431 39.4885 142.179 38.2719 142.179 36.8816C142.179 35.5087 142.423 34.3095 142.909 33.2842C143.413 32.2414 144.108 31.442 144.995 30.8859C145.881 30.3124 146.889 30.0256 148.019 30.0256C149.027 30.0256 149.93 30.2776 150.73 30.7816C151.547 31.2682 152.103 31.9025 152.398 32.6846L152.007 33.2581V24.4469H156.726V43.6334ZM149.479 40.3227C150.313 40.3227 150.956 40.0359 151.408 39.4624C151.859 38.8889 152.085 38.046 152.085 36.9338C152.085 35.8736 151.851 35.0568 151.382 34.4833C150.93 33.8924 150.295 33.597 149.479 33.597C148.627 33.597 147.975 33.8837 147.523 34.4572C147.072 35.0134 146.846 35.8215 146.846 36.8816C146.846 37.9939 147.08 38.8454 147.55 39.4363C148.019 40.0272 148.662 40.3227 149.479 40.3227ZM171.522 42.2778C170.861 42.7818 170.062 43.1728 169.123 43.4509C168.185 43.7116 167.246 43.8419 166.308 43.8419C164.778 43.8419 163.458 43.5638 162.345 43.0077C161.251 42.4516 160.408 41.6608 159.817 40.6355C159.226 39.5927 158.93 38.3675 158.93 36.9598C158.93 35.6043 159.209 34.4051 159.765 33.3624C160.338 32.3196 161.12 31.5028 162.111 30.9119C163.101 30.321 164.248 30.0256 165.552 30.0256C166.821 30.0256 167.915 30.3037 168.836 30.8598C169.775 31.4159 170.496 32.2067 171 33.232C171.504 34.2574 171.756 35.4652 171.756 36.8556V37.4812H163.101L163.154 35.2914H168.915L167.768 36.0474C167.768 35.109 167.585 34.4138 167.22 33.9619C166.873 33.4927 166.36 33.2581 165.682 33.2581C164.935 33.2581 164.361 33.5362 163.962 34.0923C163.579 34.631 163.388 35.4565 163.388 36.5688C163.388 37.9417 163.64 38.9237 164.144 39.5145C164.648 40.088 165.448 40.3748 166.542 40.3748C167.203 40.3748 167.863 40.2705 168.524 40.062C169.201 39.8361 169.801 39.5319 170.322 39.1496L171.522 42.2778ZM173.939 43.6334V34.1966C173.939 33.5709 173.922 32.9366 173.887 32.2936C173.869 31.6505 173.817 31.0162 173.73 30.3906H178.162L178.605 33.9619L178.162 33.7013C178.336 32.5021 178.814 31.5984 179.596 30.9901C180.395 30.3819 181.299 30.0777 182.307 30.0777C182.637 30.0777 182.924 30.1038 183.167 30.1559C183.411 30.2081 183.619 30.2776 183.793 30.3645V34.6658C183.046 34.3182 182.324 34.1444 181.629 34.1444C181.004 34.1444 180.473 34.2487 180.039 34.4572C179.605 34.6484 179.266 34.9526 179.022 35.3696C178.779 35.7867 178.657 36.3255 178.657 36.9859V43.6334H173.939ZM190.125 43.8419C188.996 43.8419 187.988 43.5638 187.102 43.0077C186.215 42.4516 185.52 41.6608 185.016 40.6355C184.529 39.6101 184.286 38.411 184.286 37.038C184.286 35.6477 184.538 34.4312 185.042 33.3884C185.546 32.3283 186.233 31.5028 187.102 30.9119C187.988 30.321 188.996 30.0256 190.125 30.0256C191.133 30.0256 192.037 30.2776 192.837 30.7816C193.653 31.2682 194.21 31.9112 194.505 32.7107L194.192 32.8931V30.3906H198.832V43.6334H194.192V41.209H194.505C194.21 42.0258 193.653 42.6688 192.837 43.1381C192.037 43.6073 191.133 43.8419 190.125 43.8419ZM191.585 40.3227C192.402 40.3227 193.036 40.0359 193.488 39.4624C193.958 38.8889 194.192 38.0634 194.192 36.9859C194.192 35.8736 193.966 35.0308 193.514 34.4572C193.063 33.8837 192.42 33.597 191.585 33.597C190.769 33.597 190.125 33.9011 189.656 34.5094C189.187 35.1003 188.952 35.9432 188.952 37.038C188.952 38.0981 189.178 38.915 189.63 39.4885C190.082 40.0446 190.734 40.3227 191.585 40.3227ZM215.583 43.6334H210.943V40.5312L211.256 41.209C210.961 42.0258 210.404 42.6688 209.588 43.1381C208.788 43.6073 207.885 43.8419 206.877 43.8419C205.747 43.8419 204.739 43.5552 203.853 42.9816C202.984 42.3908 202.297 41.574 201.793 40.5312C201.289 39.4885 201.037 38.2719 201.037 36.8816C201.037 35.5087 201.28 34.3095 201.767 33.2842C202.271 32.2414 202.966 31.442 203.853 30.8859C204.739 30.3124 205.747 30.0256 206.877 30.0256C207.885 30.0256 208.788 30.2776 209.588 30.7816C210.404 31.2682 210.961 31.9025 211.256 32.6846L210.865 33.2581V24.4469H215.583V43.6334ZM208.336 40.3227C209.171 40.3227 209.814 40.0359 210.265 39.4624C210.717 38.8889 210.943 38.046 210.943 36.9338C210.943 35.8736 210.709 35.0568 210.239 34.4833C209.788 33.8924 209.153 33.597 208.336 33.597C207.485 33.597 206.833 33.8837 206.381 34.4572C205.929 35.0134 205.703 35.8215 205.703 36.8816C205.703 37.9939 205.938 38.8454 206.407 39.4363C206.877 40.0272 207.52 40.3227 208.336 40.3227ZM225.061 43.8419C223.567 43.8419 222.272 43.5638 221.177 43.0077C220.1 42.4516 219.265 41.6608 218.675 40.6355C218.084 39.5927 217.788 38.3588 217.788 36.9338C217.788 35.5261 218.084 34.3095 218.675 33.2842C219.265 32.2414 220.1 31.442 221.177 30.8859C222.272 30.3124 223.567 30.0256 225.061 30.0256C226.521 30.0256 227.79 30.3124 228.867 30.8859C229.962 31.442 230.805 32.2414 231.396 33.2842C231.987 34.3095 232.282 35.5261 232.282 36.9338C232.282 38.3588 231.987 39.5927 231.396 40.6355C230.805 41.6608 229.962 42.4516 228.867 43.0077C227.79 43.5638 226.521 43.8419 225.061 43.8419ZM225.061 40.3227C225.878 40.3227 226.504 40.0533 226.938 39.5145C227.39 38.9758 227.616 38.1155 227.616 36.9338C227.616 35.7694 227.399 34.9178 226.964 34.379C226.53 33.8403 225.896 33.5709 225.061 33.5709C224.21 33.5709 223.558 33.8403 223.106 34.379C222.672 34.9178 222.454 35.7694 222.454 36.9338C222.454 38.1155 222.672 38.9758 223.106 39.5145C223.558 40.0533 224.21 40.3227 225.061 40.3227ZM234.502 43.6334V34.1966C234.502 33.5709 234.485 32.9366 234.45 32.2936C234.433 31.6505 234.381 31.0162 234.294 30.3906H238.726L239.169 33.9619L238.726 33.7013C238.899 32.5021 239.377 31.5984 240.159 30.9901C240.959 30.3819 241.862 30.0777 242.87 30.0777C243.201 30.0777 243.487 30.1038 243.731 30.1559C243.974 30.2081 244.183 30.2776 244.356 30.3645V34.6658C243.609 34.3182 242.888 34.1444 242.193 34.1444C241.567 34.1444 241.037 34.2487 240.602 34.4572C240.168 34.6484 239.829 34.9526 239.586 35.3696C239.342 35.7867 239.221 36.3255 239.221 36.9859V43.6334H234.502ZM250.689 43.8419C249.559 43.8419 248.551 43.5638 247.665 43.0077C246.779 42.4516 246.083 41.6608 245.579 40.6355C245.093 39.6101 244.85 38.411 244.85 37.038C244.85 35.6477 245.102 34.4312 245.606 33.3884C246.11 32.3283 246.796 31.5028 247.665 30.9119C248.551 30.321 249.559 30.0256 250.689 30.0256C251.697 30.0256 252.601 30.2776 253.4 30.7816C254.217 31.2682 254.773 31.9112 255.068 32.7107L254.756 32.8931V30.3906H259.396V43.6334H254.756V41.209H255.068C254.773 42.0258 254.217 42.6688 253.4 43.1381C252.601 43.6073 251.697 43.8419 250.689 43.8419ZM252.149 40.3227C252.966 40.3227 253.6 40.0359 254.052 39.4624C254.521 38.8889 254.756 38.0634 254.756 36.9859C254.756 35.8736 254.53 35.0308 254.078 34.4572C253.626 33.8837 252.983 33.597 252.149 33.597C251.332 33.597 250.689 33.9011 250.22 34.5094C249.75 35.1003 249.516 35.9432 249.516 37.038C249.516 38.0981 249.742 38.915 250.194 39.4885C250.645 40.0446 251.297 40.3227 252.149 40.3227Z" fill="white"/>
<path d="M50.7231 48.8372C49.8615 50.2825 48.8923 51.7277 47.8154 53.0618L46.8462 54.1736C42.3231 58.954 36.1846 61.511 29.7231 61.511C23.2615 61.511 17.1231 58.954 12.6 54.1736C8.07692 49.3931 5.4923 43.1674 5.4923 36.497C5.4923 36.0523 5.4923 35.4964 5.4923 35.0517C5.4923 34.9405 5.4923 34.9405 5.4923 34.8294V34.7182C5.4923 34.607 5.4923 34.4958 5.4923 34.3847C5.4923 34.2735 5.4923 34.1623 5.4923 34.1623C5.4923 34.0511 5.4923 33.94 5.4923 33.7176C5.4923 33.6064 5.4923 33.4953 5.4923 33.4953C5.4923 33.3841 5.4923 33.2729 5.4923 33.1618C5.4923 33.0506 5.4923 33.0506 5.4923 32.9394C5.4923 32.8282 5.4923 32.7171 5.4923 32.6059C5.4923 32.4947 5.4923 32.4947 5.4923 32.3835C5.4923 32.3835 5.4923 32.2724 5.4923 32.1612C5.4923 32.05 5.4923 31.9388 5.4923 31.9388V31.7165C5.4923 31.6053 5.4923 31.4942 5.4923 31.383C5.6 30.7159 5.81538 30.0489 6.03077 29.3819C6.03077 29.2707 6.03077 29.1595 6.13846 29.1595C6.13846 29.0483 6.13846 29.0483 6.24615 28.9372C6.35384 28.4925 6.56923 28.0478 6.67692 27.6031C6.67692 27.6031 6.67692 27.4919 6.78461 27.3807C6.78461 27.2696 6.78461 27.2696 6.8923 27.1584C6.8923 27.0472 7 26.936 7 26.936C7 26.8249 7 26.8249 7.10769 26.7137C7.10769 26.6025 7.21538 26.4913 7.21538 26.3802C7.21538 26.269 7.32307 26.269 7.32307 26.1578C7.96923 24.8237 8.72307 23.4897 9.58461 22.2667L9.6923 22.0444C9.8 21.9332 9.90769 21.8221 10.0154 21.5997C10.0154 21.5997 10.1231 21.4885 10.1231 21.3774C10.2308 21.2662 10.3385 21.155 10.4462 20.9327C10.4462 20.8215 10.5538 20.7103 10.6615 20.7103C10.6615 20.5991 10.7692 20.488 10.8769 20.488C10.9846 20.3768 10.9846 20.2656 11.0923 20.2656C11.2 20.1545 11.3077 20.0433 11.3077 20.0433L8.4 17.0416C3.66154 22.3779 1.07692 29.2707 1.07692 36.497C1.07692 44.2791 3.98461 51.6166 9.36923 57.1752C14.6462 62.6227 21.8615 65.7356 29.4 65.7356C36.9385 65.7356 44.0462 62.7339 49.4308 57.1752C50.9385 55.6188 52.3385 53.84 53.4154 51.9501L50.7231 48.8372Z" fill="white"/>
<path d="M13.8923 52.0612C17.8769 56.1747 23.2615 58.5093 28.9692 58.5093C29.1846 58.5093 29.2923 58.5093 29.5077 58.5093C29.6154 58.5093 29.7231 58.5093 29.7231 58.5093C29.8308 58.5093 29.9385 58.5093 30.1538 58.5093C30.2615 58.5093 30.3692 58.5093 30.4769 58.5093H30.5846H30.6923C30.8 58.5093 30.9077 58.5093 31.0154 58.5093C31.1231 58.5093 31.2308 58.5093 31.2308 58.5093C31.2308 58.5093 31.3385 58.5093 31.4462 58.5093H31.5538C31.6615 58.5093 31.6615 58.5093 31.7692 58.5093C31.9846 58.5093 32.3077 58.3981 32.5231 58.3981C32.6308 58.3981 32.6308 58.3981 32.7385 58.3981C32.7385 58.3981 32.8461 58.3981 32.9538 58.3981C33.0615 58.3981 33.0615 58.3981 33.1692 58.3981C33.3846 58.3981 33.6 58.287 33.7077 58.287C33.8154 58.287 33.9231 58.287 34.1385 58.1758C34.1385 58.1758 34.1385 58.1758 34.2462 58.1758C34.3538 58.1758 34.4615 58.1758 34.4615 58.0646C34.5692 58.0646 34.5692 58.0646 34.6769 58.0646C34.6769 58.0646 34.7846 58.0646 34.8923 58.0646C35 58.0646 35 58.0646 35 58.0646C35 58.0646 35.1077 58.0646 35.2154 58.0646C35.3231 58.0646 35.4308 58.0646 35.4308 57.9534C35.4308 57.9534 35.5385 57.9534 35.6462 57.9534C35.8615 57.9534 35.9692 57.8423 36.1846 57.7311H36.2923C36.2923 57.7311 36.4 57.7311 36.5077 57.6199C36.6154 57.6199 36.7231 57.6199 36.7231 57.5087C36.8308 57.5087 36.8308 57.5087 36.9385 57.3976C37.0462 57.3976 37.1538 57.2864 37.2615 57.2864L37.5846 57.1752C37.6923 57.1752 37.8 57.064 37.8 57.064C37.8 57.064 37.9077 57.0641 37.9077 56.9529C38.0154 56.9529 38.0154 56.8417 38.1231 56.8417C38.5538 56.6194 38.9846 56.397 39.4154 56.1747C39.4154 56.1747 39.5231 56.1747 39.5231 56.0635C39.6308 56.0635 39.7385 55.9523 39.8462 55.8411L40.2769 55.5076C40.4923 55.3965 40.7077 55.1741 40.9231 55.0629C41.0308 55.0629 41.0308 54.9518 41.1385 54.9518L41.2462 54.8406C41.2462 54.8406 41.3538 54.8406 41.3538 54.7294C41.3538 54.7294 41.4615 54.6182 41.5692 54.6182C41.6769 54.6182 41.6769 54.5071 41.7846 54.3959L41.8923 54.2847C42 54.2847 42 54.1735 42.1077 54.0624C42.2154 54.0624 42.2154 53.9512 42.3231 53.84C42.4308 53.7288 42.5385 53.6177 42.7538 53.5065L42.8615 53.3953L39.9538 50.3936C36.8308 53.173 32.8462 54.6182 28.7538 54.6182C19.1692 54.6182 11.5231 46.6137 11.5231 36.8305C11.5231 32.05 13.3538 27.6031 16.5846 24.1567C18.0923 22.4891 20.0308 21.155 21.9692 20.3768L18.9538 17.2639C17.0154 18.2645 15.2923 19.5986 13.6769 21.2662C9.58461 25.4908 7.43077 30.9383 7.43077 36.8305C7.64615 42.3891 9.8 47.9478 13.8923 52.0612Z" fill="#FFC709"/>
<path d="M54.4923 26.6025C53.4154 18.7092 49.4308 11.8164 43.2923 7.03597C37.1538 2.25551 29.5077 0.254384 21.9692 1.36612C14.3231 2.47785 7.53846 6.70245 2.90769 13.0393C1.61538 14.8181 0.430766 16.8192 -0.32308 18.9315L3.01538 21.4885C3.66154 19.8209 4.41538 18.2645 5.38461 16.8192L6.24615 15.5963C10.2308 10.1488 15.9385 6.59128 22.5077 5.70189C29.0769 4.70132 35.5385 6.4801 40.8154 10.4823C46.0923 14.5958 49.5385 20.488 50.5077 27.2696C50.6154 27.7142 50.6154 28.2701 50.7231 28.7148C50.7231 28.826 50.7231 28.826 50.7231 28.9372C50.7231 28.9372 50.7231 29.0483 50.7231 29.1595C50.7231 29.2707 50.7231 29.3818 50.7231 29.493C50.7231 29.6042 50.7231 29.7154 50.7231 29.7154C50.7231 29.8265 50.7231 29.9377 50.7231 30.1601C50.7231 30.2712 50.7231 30.3824 50.7231 30.3824C50.7231 30.4936 50.7231 30.6048 50.7231 30.7159C50.7231 30.8271 50.7231 30.8271 50.7231 30.9383C50.7231 31.0495 50.7231 31.1606 50.7231 31.383C50.7231 31.4941 50.7231 31.4941 50.7231 31.6053C50.7231 31.6053 50.7231 31.7165 50.7231 31.8277C50.7231 31.9388 50.7231 32.05 50.7231 32.05V32.2724C50.7231 32.2724 50.7231 32.4947 50.7231 32.6059C50.7231 33.2729 50.6154 34.0511 50.5077 34.7182C50.5077 34.8294 50.5077 34.9405 50.5077 35.0517C50.5077 35.1629 50.5077 35.274 50.5077 35.274C50.4 35.7187 50.2923 36.1634 50.2923 36.6081C50.2923 36.6081 50.2923 36.7193 50.2923 36.8305C50.2923 36.9417 50.2923 36.9417 50.2923 37.0528C50.2923 37.164 50.2923 37.2752 50.1846 37.2752C50.1846 37.3863 50.1846 37.4975 50.1846 37.4975C50.1846 37.6087 50.1846 37.7199 50.0769 37.831C50.0769 37.9422 50.0769 38.0534 49.9692 38.0534C49.5385 39.4986 49 40.9439 48.3538 42.278L48.2461 42.5003C48.1385 42.7227 48.0308 42.8339 48.0308 42.945C48.0308 43.0562 47.9231 43.0562 47.9231 43.1674C47.8154 43.3897 47.7077 43.5009 47.7077 43.6121C47.7077 43.7232 47.6 43.8344 47.4923 43.8344C47.4923 43.9456 47.3846 44.0568 47.3846 44.0568C47.3846 44.1679 47.2769 44.2791 47.1692 44.2791C47.1692 44.3903 47.0615 44.5015 46.9538 44.6126L50.1846 47.1696C53.9538 41.2774 55.5692 33.94 54.4923 26.6025Z" fill="#FFC709"/>
<path d="M32.9538 47.1696L35.9692 50.2825C37.9077 49.2819 39.6308 47.9478 41.2462 46.2802C45.3385 42.0556 47.4923 36.6081 47.4923 30.7159C47.4923 24.8237 45.2308 19.3762 41.2462 15.1516C37.2615 10.9271 31.8769 8.70358 26.1692 8.70358C25.9538 8.70358 25.8461 8.70358 25.6308 8.70358C25.5231 8.70358 25.4154 8.70358 25.4154 8.70358C25.3077 8.70358 25.2 8.70358 24.9846 8.70358C24.8769 8.70358 24.7692 8.70358 24.6615 8.70358H24.5538H24.4462C24.3385 8.70358 24.2308 8.70358 24.1231 8.70358C24.0154 8.70358 23.9077 8.70358 23.9077 8.70358C23.9077 8.70358 23.8 8.70358 23.6923 8.70358C23.5846 8.70358 23.5846 8.70358 23.4769 8.70358C23.2615 8.70358 22.9385 8.81476 22.7231 8.81476C22.6154 8.81476 22.6154 8.81476 22.5077 8.81476C22.5077 8.81476 22.4 8.81476 22.2923 8.81476C22.1846 8.81476 22.1846 8.81476 22.0769 8.81476C21.8615 8.81476 21.6462 8.92593 21.5385 8.92593C21.4308 8.92593 21.3231 8.92593 21.1077 9.0371C21.1077 9.0371 21.1077 9.0371 21 9.0371C20.8923 9.0371 20.7846 9.0371 20.7846 9.14828C20.6769 9.14828 20.6769 9.14828 20.5692 9.14828C20.5692 9.14828 20.4615 9.14828 20.3538 9.14828H20.2462C20.2462 9.14828 20.1385 9.14828 20.0308 9.14828C19.9231 9.14828 19.8154 9.14828 19.8154 9.25945C19.8154 9.25945 19.7077 9.25945 19.6 9.25945C19.3846 9.25945 19.2769 9.37062 19.0615 9.4818H18.9538C18.9538 9.4818 18.8462 9.4818 18.7385 9.4818C18.6308 9.4818 18.5231 9.59297 18.5231 9.59297C18.4154 9.59297 18.4154 9.59297 18.3077 9.70414C18.2 9.70414 18.0923 9.81532 17.9846 9.81532L17.6615 9.92649C17.5538 9.92649 17.4462 10.0377 17.4462 10.0377C17.4462 10.0377 17.3385 10.0377 17.3385 10.1488C17.2308 10.1488 17.2308 10.26 17.1231 10.26C16.6923 10.4824 16.2615 10.7047 15.8308 10.9271C15.8308 10.9271 15.7231 10.9271 15.7231 11.0382C15.6154 11.0382 15.5077 11.1494 15.4 11.2606L15.0769 11.4829C15.0769 11.4829 14.9692 11.5941 14.8615 11.5941C14.6462 11.7053 14.4308 11.9276 14.2154 12.0388C14.2154 12.0388 14.1077 12.15 14 12.15C14 12.15 13.8923 12.2611 13.7846 12.2611C13.7846 12.2611 13.6769 12.2611 13.6769 12.3723C13.6769 12.3723 13.5692 12.4835 13.4615 12.4835C13.3538 12.4835 13.3538 12.5947 13.2462 12.7058L13.1385 12.817C13.0308 12.817 13.0308 12.9282 12.9231 13.0394C12.8154 13.0394 12.8154 13.1505 12.7077 13.2617C12.6 13.3729 12.4923 13.484 12.2769 13.5952L12.1692 13.7064L15.0769 16.7081C18.2 13.9287 22.1846 12.4835 26.2769 12.4835C35.8615 12.4835 43.5077 20.488 43.5077 30.2712C43.5077 35.0517 41.6769 39.4987 38.4462 42.945C36.7231 45.0573 34.8923 46.2802 32.9538 47.1696Z" fill="white"/>
</g>
<defs>
<clipPath id="clip0">
<rect width="266" height="64.4807" fill="white" transform="translate(0 0.810242)"/>
</clipPath>
</defs>
</svg>
