<svg width="246" height="58" viewBox="0 0 246 58" fill="none" xmlns="http://www.w3.org/2000/svg">
<g clip-path="url(#clip0)">
<path d="M54.881 41.1323V22.5716H68.1238V26.3254H59.6516V29.8186H67.5764V33.5725H59.6516V37.3785H68.1238V41.1323H54.881ZM70.3531 41.1323V31.6955C70.3531 31.0699 70.3357 30.4355 70.301 29.7925C70.2836 29.1495 70.2314 28.5152 70.1445 27.8895H74.5762L74.889 30.3921L74.5762 30.1836C74.9585 29.3494 75.5233 28.6976 76.2706 28.2284C77.0353 27.7592 77.939 27.5246 78.9818 27.5246C80.1635 27.5246 81.102 27.8374 81.7972 28.463C82.5097 29.0713 82.9789 29.9837 83.2049 31.2002L82.5792 30.366C83.0137 29.5145 83.6393 28.828 84.4562 28.3066C85.2903 27.7853 86.2114 27.5246 87.2194 27.5246C88.7661 27.5246 89.9045 28.0025 90.6344 28.9583C91.3643 29.8968 91.7293 31.3219 91.7293 33.2336V41.1323H87.0109V33.3639C87.0109 32.5992 86.8979 32.0431 86.672 31.6955C86.446 31.3306 86.0463 31.1481 85.4728 31.1481C84.8124 31.1481 84.2997 31.3914 83.9348 31.878C83.5698 32.3646 83.3873 33.0511 83.3873 33.9374V41.1323H78.6689V33.3639C78.6689 32.5992 78.5473 32.0431 78.304 31.6955C78.0781 31.3306 77.687 31.1481 77.1309 31.1481C76.4705 31.1481 75.9578 31.3914 75.5929 31.878C75.2453 32.3646 75.0715 33.0511 75.0715 33.9374V41.1323H70.3531ZM94.4614 46.7631V31.6955C94.4614 31.0699 94.444 30.4355 94.4092 29.7925C94.3918 29.1495 94.3397 28.5152 94.2528 27.8895H98.6845L98.9973 30.366L98.8409 30.2096C99.1189 29.4102 99.6577 28.7672 100.457 28.2806C101.257 27.7766 102.169 27.5246 103.194 27.5246C104.341 27.5246 105.349 27.82 106.218 28.4109C107.105 29.0018 107.8 29.8273 108.304 30.8874C108.808 31.9301 109.06 33.1467 109.06 34.537C109.06 35.9099 108.808 37.1091 108.304 38.1344C107.8 39.1598 107.105 39.9506 106.218 40.5067C105.349 41.0628 104.341 41.3409 103.194 41.3409C102.169 41.3409 101.257 41.1063 100.457 40.637C99.6577 40.1678 99.1189 39.5248 98.8409 38.708L99.1798 38.1084V46.7631H94.4614ZM101.761 37.8216C102.612 37.8216 103.255 37.5436 103.69 36.9874C104.124 36.4139 104.341 35.5971 104.341 34.537C104.341 33.4421 104.115 32.5992 103.664 32.0083C103.229 31.4001 102.595 31.096 101.761 31.096C100.909 31.096 100.257 31.3827 99.8054 31.9562C99.3536 32.5297 99.1276 33.3726 99.1276 34.4849C99.1276 35.5624 99.3536 36.3879 99.8054 36.9614C100.257 37.5349 100.909 37.8216 101.761 37.8216ZM117.937 41.3409C116.442 41.3409 115.148 41.0628 114.053 40.5067C112.975 39.9506 112.141 39.1598 111.55 38.1344C110.959 37.0917 110.664 35.8578 110.664 34.4327C110.664 33.025 110.959 31.8085 111.55 30.7831C112.141 29.7404 112.975 28.941 114.053 28.3848C115.148 27.8113 116.442 27.5246 117.937 27.5246C119.397 27.5246 120.665 27.8113 121.743 28.3848C122.838 28.941 123.681 29.7404 124.272 30.7831C124.862 31.8085 125.158 33.025 125.158 34.4327C125.158 35.8578 124.862 37.0917 124.272 38.1344C123.681 39.1598 122.838 39.9506 121.743 40.5067C120.665 41.0628 119.397 41.3409 117.937 41.3409ZM117.937 37.8216C118.754 37.8216 119.379 37.5523 119.814 37.0135C120.266 36.4748 120.492 35.6145 120.492 34.4327C120.492 33.2683 120.274 32.4168 119.84 31.878C119.405 31.3393 118.771 31.0699 117.937 31.0699C117.085 31.0699 116.434 31.3393 115.982 31.878C115.547 32.4168 115.33 33.2683 115.33 34.4327C115.33 35.6145 115.547 36.4748 115.982 37.0135C116.434 37.5523 117.085 37.8216 117.937 37.8216ZM141.325 41.1323H136.684V38.0302L136.997 38.708C136.702 39.5248 136.146 40.1678 135.329 40.637C134.529 41.1063 133.626 41.3409 132.618 41.3409C131.488 41.3409 130.48 41.0541 129.594 40.4806C128.725 39.8897 128.038 39.0729 127.534 38.0302C127.03 36.9874 126.778 35.7709 126.778 34.3806C126.778 33.0076 127.022 31.8085 127.508 30.7831C128.012 29.7404 128.707 28.941 129.594 28.3848C130.48 27.8113 131.488 27.5246 132.618 27.5246C133.626 27.5246 134.529 27.7766 135.329 28.2806C136.146 28.7672 136.702 29.4015 136.997 30.1836L136.606 30.7571V21.9459H141.325V41.1323ZM134.078 37.8216C134.912 37.8216 135.555 37.5349 136.007 36.9614C136.458 36.3879 136.684 35.545 136.684 34.4327C136.684 33.3726 136.45 32.5558 135.981 31.9823C135.529 31.3914 134.894 31.096 134.078 31.096C133.226 31.096 132.574 31.3827 132.122 31.9562C131.671 32.5123 131.445 33.3205 131.445 34.3806C131.445 35.4928 131.679 36.3444 132.148 36.9353C132.618 37.5262 133.261 37.8216 134.078 37.8216ZM156.12 39.7768C155.46 40.2808 154.661 40.6718 153.722 40.9498C152.784 41.2105 151.845 41.3409 150.907 41.3409C149.377 41.3409 148.057 41.0628 146.944 40.5067C145.85 39.9506 145.007 39.1598 144.416 38.1344C143.825 37.0917 143.529 35.8665 143.529 34.4588C143.529 33.1032 143.807 31.9041 144.364 30.8613C144.937 29.8186 145.719 29.0018 146.71 28.4109C147.7 27.82 148.847 27.5246 150.151 27.5246C151.419 27.5246 152.514 27.8026 153.435 28.3588C154.374 28.9149 155.095 29.7056 155.599 30.731C156.103 31.7564 156.355 32.9642 156.355 34.3545V34.9802H147.7L147.753 32.7904H153.514L152.367 33.5464C152.367 32.6079 152.184 31.9128 151.819 31.4609C151.472 30.9917 150.959 30.7571 150.281 30.7571C149.534 30.7571 148.96 31.0351 148.561 31.5913C148.178 32.13 147.987 32.9555 147.987 34.0678C147.987 35.4407 148.239 36.4226 148.743 37.0135C149.247 37.587 150.047 37.8738 151.141 37.8738C151.802 37.8738 152.462 37.7695 153.123 37.5609C153.8 37.335 154.4 37.0309 154.921 36.6485L156.12 39.7768ZM158.538 41.1323V31.6955C158.538 31.0699 158.521 30.4355 158.486 29.7925C158.468 29.1495 158.416 28.5152 158.329 27.8895H162.761L163.204 31.4609L162.761 31.2002C162.935 30.0011 163.413 29.0974 164.195 28.4891C164.994 27.8808 165.898 27.5767 166.906 27.5767C167.236 27.5767 167.523 27.6028 167.766 27.6549C168.009 27.707 168.218 27.7766 168.392 27.8635V32.1648C167.645 31.8172 166.923 31.6434 166.228 31.6434C165.603 31.6434 165.072 31.7477 164.638 31.9562C164.203 32.1474 163.865 32.4515 163.621 32.8686C163.378 33.2857 163.256 33.8245 163.256 34.4849V41.1323H158.538ZM174.724 41.3409C173.595 41.3409 172.587 41.0628 171.701 40.5067C170.814 39.9506 170.119 39.1598 169.615 38.1344C169.128 37.1091 168.885 35.9099 168.885 34.537C168.885 33.1467 169.137 31.9301 169.641 30.8874C170.145 29.8273 170.832 29.0018 171.701 28.4109C172.587 27.82 173.595 27.5246 174.724 27.5246C175.732 27.5246 176.636 27.7766 177.436 28.2806C178.252 28.7672 178.809 29.4102 179.104 30.2096L178.791 30.3921V27.8895H183.431V41.1323H178.791V38.708H179.104C178.809 39.5248 178.252 40.1678 177.436 40.637C176.636 41.1063 175.732 41.3409 174.724 41.3409ZM176.184 37.8216C177.001 37.8216 177.635 37.5349 178.087 36.9614C178.557 36.3879 178.791 35.5624 178.791 34.4849C178.791 33.3726 178.565 32.5297 178.113 31.9562C177.661 31.3827 177.018 31.096 176.184 31.096C175.367 31.096 174.724 31.4001 174.255 32.0083C173.786 32.5992 173.551 33.4421 173.551 34.537C173.551 35.5971 173.777 36.4139 174.229 36.9874C174.681 37.5436 175.333 37.8216 176.184 37.8216ZM200.182 41.1323H195.542V38.0302L195.855 38.708C195.56 39.5248 195.003 40.1678 194.187 40.637C193.387 41.1063 192.483 41.3409 191.476 41.3409C190.346 41.3409 189.338 41.0541 188.452 40.4806C187.583 39.8897 186.896 39.0729 186.392 38.0302C185.888 36.9874 185.636 35.7709 185.636 34.3806C185.636 33.0076 185.879 31.8085 186.366 30.7831C186.87 29.7404 187.565 28.941 188.452 28.3848C189.338 27.8113 190.346 27.5246 191.476 27.5246C192.483 27.5246 193.387 27.7766 194.187 28.2806C195.003 28.7672 195.56 29.4015 195.855 30.1836L195.464 30.7571V21.9459H200.182V41.1323ZM192.935 37.8216C193.77 37.8216 194.413 37.5349 194.864 36.9614C195.316 36.3879 195.542 35.545 195.542 34.4327C195.542 33.3726 195.308 32.5558 194.838 31.9823C194.386 31.3914 193.752 31.096 192.935 31.096C192.084 31.096 191.432 31.3827 190.98 31.9562C190.528 32.5123 190.302 33.3205 190.302 34.3806C190.302 35.4928 190.537 36.3444 191.006 36.9353C191.476 37.5262 192.119 37.8216 192.935 37.8216ZM209.66 41.3409C208.166 41.3409 206.871 41.0628 205.776 40.5067C204.699 39.9506 203.864 39.1598 203.274 38.1344C202.683 37.0917 202.387 35.8578 202.387 34.4327C202.387 33.025 202.683 31.8085 203.274 30.7831C203.864 29.7404 204.699 28.941 205.776 28.3848C206.871 27.8113 208.166 27.5246 209.66 27.5246C211.12 27.5246 212.389 27.8113 213.466 28.3848C214.561 28.941 215.404 29.7404 215.995 30.7831C216.586 31.8085 216.881 33.025 216.881 34.4327C216.881 35.8578 216.586 37.0917 215.995 38.1344C215.404 39.1598 214.561 39.9506 213.466 40.5067C212.389 41.0628 211.12 41.3409 209.66 41.3409ZM209.66 37.8216C210.477 37.8216 211.103 37.5523 211.537 37.0135C211.989 36.4748 212.215 35.6145 212.215 34.4327C212.215 33.2683 211.998 32.4168 211.563 31.878C211.129 31.3393 210.494 31.0699 209.66 31.0699C208.809 31.0699 208.157 31.3393 207.705 31.878C207.271 32.4168 207.053 33.2683 207.053 34.4327C207.053 35.6145 207.271 36.4748 207.705 37.0135C208.157 37.5523 208.809 37.8216 209.66 37.8216ZM219.101 41.1323V31.6955C219.101 31.0699 219.084 30.4355 219.049 29.7925C219.032 29.1495 218.98 28.5152 218.893 27.8895H223.324L223.768 31.4609L223.324 31.2002C223.498 30.0011 223.976 29.0974 224.758 28.4891C225.558 27.8808 226.461 27.5767 227.469 27.5767C227.8 27.5767 228.086 27.6028 228.33 27.6549C228.573 27.707 228.781 27.7766 228.955 27.8635V32.1648C228.208 31.8172 227.487 31.6434 226.792 31.6434C226.166 31.6434 225.636 31.7477 225.201 31.9562C224.767 32.1474 224.428 32.4515 224.185 32.8686C223.941 33.2857 223.82 33.8245 223.82 34.4849V41.1323H219.101ZM235.288 41.3409C234.158 41.3409 233.15 41.0628 232.264 40.5067C231.378 39.9506 230.682 39.1598 230.178 38.1344C229.692 37.1091 229.449 35.9099 229.449 34.537C229.449 33.1467 229.701 31.9301 230.205 30.8874C230.709 29.8273 231.395 29.0018 232.264 28.4109C233.15 27.82 234.158 27.5246 235.288 27.5246C236.296 27.5246 237.2 27.7766 237.999 28.2806C238.816 28.7672 239.372 29.4102 239.667 30.2096L239.355 30.3921V27.8895H243.995V41.1323H239.355V38.708H239.667C239.372 39.5248 238.816 40.1678 237.999 40.637C237.2 41.1063 236.296 41.3409 235.288 41.3409ZM236.748 37.8216C237.565 37.8216 238.199 37.5349 238.651 36.9614C239.12 36.3879 239.355 35.5624 239.355 34.4849C239.355 33.3726 239.129 32.5297 238.677 31.9562C238.225 31.3827 237.582 31.096 236.748 31.096C235.931 31.096 235.288 31.4001 234.819 32.0083C234.349 32.5992 234.115 33.4421 234.115 34.537C234.115 35.5971 234.341 36.4139 234.793 36.9874C235.244 37.5436 235.896 37.8216 236.748 37.8216Z" fill="black"/>
<path d="M46.1 43.2001C45.3 44.5001 44.4 45.8001 43.4 47.0001L42.5 48.0001C38.3 52.3001 32.6 54.6001 26.6 54.6001C20.6 54.6001 14.9 52.3001 10.7 48.0001C6.5 43.7001 4.1 38.1001 4.1 32.1001C4.1 31.7001 4.1 31.2001 4.1 30.8001C4.1 30.7001 4.1 30.7001 4.1 30.6001V30.5001C4.1 30.4001 4.1 30.3001 4.1 30.2001C4.1 30.1001 4.1 30.0001 4.1 30.0001C4.1 29.9001 4.1 29.8001 4.1 29.6001C4.1 29.5001 4.1 29.4001 4.1 29.4001C4.1 29.3001 4.1 29.2001 4.1 29.1001C4.1 29.0001 4.1 29.0001 4.1 28.9001C4.1 28.8001 4.1 28.7001 4.1 28.6001C4.1 28.5001 4.1 28.5001 4.1 28.4001C4.1 28.4001 4.1 28.3001 4.1 28.2001C4.1 28.1001 4.1 28.0001 4.1 28.0001V27.8001C4.1 27.7001 4.1 27.6001 4.1 27.5001C4.2 26.9001 4.4 26.3001 4.6 25.7001C4.6 25.6001 4.6 25.5001 4.7 25.5001C4.7 25.4001 4.7 25.4001 4.8 25.3001C4.9 24.9001 5.1 24.5001 5.2 24.1001C5.2 24.1001 5.2 24.0001 5.3 23.9001C5.3 23.8001 5.3 23.8001 5.4 23.7001C5.4 23.6001 5.5 23.5001 5.5 23.5001C5.5 23.4001 5.5 23.4001 5.6 23.3001C5.6 23.2001 5.7 23.1001 5.7 23.0001C5.7 22.9001 5.8 22.9001 5.8 22.8001C6.4 21.6001 7.1 20.4001 7.9 19.3001L8 19.1001C8.1 19.0001 8.2 18.9001 8.3 18.7001C8.3 18.7001 8.4 18.6001 8.4 18.5001C8.5 18.4001 8.6 18.3001 8.7 18.1001C8.7 18.0001 8.8 17.9001 8.9 17.9001C8.9 17.8001 9 17.7001 9.1 17.7001C9.2 17.6001 9.2 17.5001 9.3 17.5001C9.4 17.4001 9.5 17.3001 9.5 17.3001L6.8 14.6001C2.4 19.4001 0 25.6001 0 32.1001C0 39.1001 2.7 45.7001 7.7 50.7001C12.6 55.6001 19.3 58.4001 26.3 58.4001C33.3 58.4001 39.9 55.7001 44.9 50.7001C46.3 49.3001 47.6 47.7001 48.6 46.0001L46.1 43.2001Z" fill="black"/>
<path d="M11.9 46.1003C15.6 49.8003 20.6 51.9003 25.9 51.9003C26.1 51.9003 26.2 51.9003 26.4 51.9003C26.5 51.9003 26.6 51.9003 26.6 51.9003C26.7 51.9003 26.8 51.9003 27 51.9003C27.1 51.9003 27.2 51.9003 27.3 51.9003H27.4H27.5C27.6 51.9003 27.7 51.9003 27.8 51.9003C27.9 51.9003 28 51.9003 28 51.9003C28 51.9003 28.1 51.9003 28.2 51.9003H28.3C28.4 51.9003 28.4 51.9003 28.5 51.9003C28.7 51.9003 29 51.8003 29.2 51.8003C29.3 51.8003 29.3 51.8003 29.4 51.8003C29.4 51.8003 29.5 51.8003 29.6 51.8003C29.7 51.8003 29.7 51.8003 29.8 51.8003C30 51.8003 30.2 51.7003 30.3 51.7003C30.4 51.7003 30.5 51.7003 30.7 51.6003C30.7 51.6003 30.7 51.6003 30.8 51.6003C30.9 51.6003 31 51.6003 31 51.5003C31.1 51.5003 31.1 51.5003 31.2 51.5003C31.2 51.5003 31.3 51.5003 31.4 51.5003C31.5 51.5003 31.5 51.5003 31.5 51.5003C31.5 51.5003 31.6 51.5003 31.7 51.5003C31.8 51.5003 31.9 51.5003 31.9 51.4003C31.9 51.4003 32 51.4003 32.1 51.4003C32.3 51.4003 32.4 51.3003 32.6 51.2003H32.7C32.7 51.2003 32.8 51.2003 32.9 51.1003C33 51.1003 33.1 51.1003 33.1 51.0003C33.2 51.0003 33.2 51.0003 33.3 50.9003C33.4 50.9003 33.5 50.8003 33.6 50.8003L33.9 50.7003C34 50.7003 34.1 50.6003 34.1 50.6003C34.1 50.6003 34.2 50.6003 34.2 50.5003C34.3 50.5003 34.3 50.4003 34.4 50.4003C34.8 50.2003 35.2 50.0003 35.6 49.8003C35.6 49.8003 35.7 49.8003 35.7 49.7003C35.8 49.7003 35.9 49.6003 36 49.5003L36.4 49.2003C36.6 49.1003 36.8 48.9003 37 48.8003C37.1 48.8003 37.1 48.7003 37.2 48.7003L37.3 48.6003C37.3 48.6003 37.4 48.6003 37.4 48.5003C37.4 48.5003 37.5 48.4003 37.6 48.4003C37.7 48.4003 37.7 48.3003 37.8 48.2003L37.9 48.1003C38 48.1003 38 48.0003 38.1 47.9003C38.2 47.9003 38.2 47.8003 38.3 47.7003C38.4 47.6003 38.5 47.5003 38.7 47.4003L38.8 47.3003L36.1 44.6003C33.2 47.1003 29.5 48.4003 25.7 48.4003C16.8 48.4003 9.70002 41.2003 9.70002 32.4003C9.70002 28.1003 11.4 24.1003 14.4 21.0003C15.8 19.5003 17.6 18.3003 19.4 17.6003L16.6 14.8003C14.8 15.7003 13.2 16.9003 11.7 18.4003C7.90002 22.2003 5.90002 27.1003 5.90002 32.4003C6.10002 37.4003 8.10002 42.4003 11.9 46.1003Z" fill="#FFC709"/>
<path d="M49.6 23.2001C48.6 16.1001 44.9 9.90006 39.2 5.60006C33.5 1.30006 26.4 -0.499941 19.4 0.500059C12.3 1.50006 6.00001 5.30006 1.70001 11.0001C0.500012 12.6001 -0.599988 14.4001 -1.29999 16.3001L1.80001 18.6001C2.40001 17.1001 3.10001 15.7001 4.00001 14.4001L4.80001 13.3001C8.50001 8.40006 13.8 5.20006 19.9 4.40006C26 3.50006 32 5.10006 36.9 8.70006C41.8 12.4001 45 17.7001 45.9 23.8001C46 24.2001 46 24.7001 46.1 25.1001C46.1 25.2001 46.1 25.2001 46.1 25.3001C46.1 25.3001 46.1 25.4001 46.1 25.5001C46.1 25.6001 46.1 25.7001 46.1 25.8001C46.1 25.9001 46.1 26.0001 46.1 26.0001C46.1 26.1001 46.1 26.2001 46.1 26.4001C46.1 26.5001 46.1 26.6001 46.1 26.6001C46.1 26.7001 46.1 26.8001 46.1 26.9001C46.1 27.0001 46.1 27.0001 46.1 27.1001C46.1 27.2001 46.1 27.3001 46.1 27.5001C46.1 27.6001 46.1 27.6001 46.1 27.7001C46.1 27.7001 46.1 27.8001 46.1 27.9001C46.1 28.0001 46.1 28.1001 46.1 28.1001V28.3001C46.1 28.3001 46.1 28.5001 46.1 28.6001C46.1 29.2001 46 29.9001 45.9 30.5001C45.9 30.6001 45.9 30.7001 45.9 30.8001C45.9 30.9001 45.9 31.0001 45.9 31.0001C45.8 31.4001 45.7 31.8001 45.7 32.2001C45.7 32.2001 45.7 32.3001 45.7 32.4001C45.7 32.5001 45.7 32.5001 45.7 32.6001C45.7 32.7001 45.7 32.8001 45.6 32.8001C45.6 32.9001 45.6 33.0001 45.6 33.0001C45.6 33.1001 45.6 33.2001 45.5 33.3001C45.5 33.4001 45.5 33.5001 45.4 33.5001C45 34.8001 44.5 36.1001 43.9 37.3001L43.8 37.5001C43.7 37.7001 43.6 37.8001 43.6 37.9001C43.6 38.0001 43.5 38.0001 43.5 38.1001C43.4 38.3001 43.3 38.4001 43.3 38.5001C43.3 38.6001 43.2 38.7001 43.1 38.7001C43.1 38.8001 43 38.9001 43 38.9001C43 39.0001 42.9 39.1001 42.8 39.1001C42.8 39.2001 42.7 39.3001 42.6 39.4001L45.6 41.7001C49.1 36.4001 50.6 29.8001 49.6 23.2001Z" fill="#FFC709"/>
<path d="M29.6 41.7001L32.4001 44.5001C34.2001 43.6001 35.8 42.4001 37.3 40.9001C41.1 37.1001 43.1 32.2001 43.1 26.9001C43.1 21.6001 41 16.7001 37.3 12.9001C33.6 9.1001 28.6 7.1001 23.3 7.1001C23.1 7.1001 23 7.1001 22.8 7.1001C22.7 7.1001 22.6 7.1001 22.6 7.1001C22.5 7.1001 22.4 7.1001 22.2 7.1001C22.1 7.1001 22 7.1001 21.9 7.1001H21.8H21.7C21.6 7.1001 21.5 7.1001 21.4 7.1001C21.3 7.1001 21.2 7.1001 21.2 7.1001C21.2 7.1001 21.1 7.1001 21 7.1001C20.9 7.1001 20.9 7.1001 20.8 7.1001C20.6 7.1001 20.3 7.2001 20.1 7.2001C20 7.2001 20 7.2001 19.9 7.2001C19.9 7.2001 19.8 7.2001 19.7 7.2001C19.6 7.2001 19.6 7.2001 19.5 7.2001C19.3 7.2001 19.1 7.3001 19 7.3001C18.9 7.3001 18.8 7.3001 18.6 7.4001C18.6 7.4001 18.6 7.4001 18.5 7.4001C18.4 7.4001 18.3 7.4001 18.3 7.5001C18.2 7.5001 18.2 7.5001 18.1 7.5001C18.1 7.5001 18 7.5001 17.9 7.5001H17.8C17.8 7.5001 17.7 7.5001 17.6 7.5001C17.5 7.5001 17.4 7.5001 17.4 7.6001C17.4 7.6001 17.3 7.6001 17.2 7.6001C17 7.6001 16.9 7.7001 16.7 7.8001H16.6C16.6 7.8001 16.5 7.8001 16.4 7.8001C16.3 7.8001 16.2 7.9001 16.2 7.9001C16.1 7.9001 16.1 7.9001 16 8.0001C15.9 8.0001 15.8 8.1001 15.7 8.1001L15.4 8.2001C15.3 8.2001 15.2 8.3001 15.2 8.3001C15.2 8.3001 15.1 8.3001 15.1 8.4001C15 8.4001 15 8.5001 14.9 8.5001C14.5 8.7001 14.1 8.9001 13.7 9.1001C13.7 9.1001 13.6 9.1001 13.6 9.2001C13.5 9.2001 13.4 9.3001 13.3 9.4001L13 9.6001C13 9.6001 12.9 9.7001 12.8 9.7001C12.6 9.8001 12.4 10.0001 12.2 10.1001C12.2 10.1001 12.1 10.2001 12 10.2001C12 10.2001 11.9 10.3001 11.8 10.3001C11.8 10.3001 11.7 10.3001 11.7 10.4001C11.7 10.4001 11.6 10.5001 11.5 10.5001C11.4 10.5001 11.4 10.6001 11.3 10.7001L11.2 10.8001C11.1 10.8001 11.1 10.9001 11 11.0001C10.9 11.0001 10.9 11.1001 10.8 11.2001C10.7 11.3001 10.6 11.4001 10.4 11.5001L10.3 11.6001L13 14.3001C15.9 11.8001 19.6 10.5001 23.4 10.5001C32.3 10.5001 39.4001 17.7001 39.4001 26.5001C39.4001 30.8001 37.7001 34.8001 34.7001 37.9001C33.1 39.8001 31.4 40.9001 29.6 41.7001Z" fill="black"/>
</g>
<defs>
<clipPath id="clip0">
<rect width="246" height="58" fill="white"/>
</clipPath>
</defs>
</svg>
