<svg width="167" height="83" viewBox="0 0 167 83" fill="none" xmlns="http://www.w3.org/2000/svg">
<rect x="0.5" y="28.5" width="166" height="49" stroke="#F0C530"/>
<path d="M142.06 42.0069C141.542 40.0361 140.017 38.4839 138.081 37.9572C134.572 37 120.5 37 120.5 37C120.5 37 106.428 37 102.919 37.9572C100.983 38.484 99.4579 40.0361 98.9403 42.0069C98 45.5792 98 53.0323 98 53.0323C98 53.0323 98 60.4855 98.9403 64.0578C99.4579 66.0286 100.983 67.5161 102.919 68.0428C106.428 69 120.5 69 120.5 69C120.5 69 134.572 69 138.081 68.0428C140.017 67.5161 141.542 66.0286 142.06 64.0578C143 60.4855 143 53.0323 143 53.0323C143 53.0323 143 45.5792 142.06 42.0069ZM115.898 59.7993V46.2654L127.659 53.0325L115.898 59.7993Z" fill="#F0C530"/>
</svg>
