<svg width="89" height="63" viewBox="0 0 89 63" fill="none" xmlns="http://www.w3.org/2000/svg">
<path d="M86.3354 9.74002C85.3212 5.90613 82.3333 2.88668 78.5395 1.86199C71.663 0 44.089 0 44.089 0C44.089 0 16.5151 0 9.63842 1.86199C5.84463 2.88684 2.85668 5.90613 1.84256 9.74002C0 16.6892 0 31.1879 0 31.1879C0 31.1879 0 45.6866 1.84256 52.6358C2.85668 56.4697 5.84463 59.3633 9.63842 60.388C16.5151 62.25 44.089 62.25 44.089 62.25C44.089 62.25 71.6628 62.25 78.5395 60.388C82.3333 59.3633 85.3212 56.4697 86.3354 52.6358C88.1779 45.6866 88.1779 31.1879 88.1779 31.1879C88.1779 31.1879 88.1779 16.6892 86.3354 9.74002ZM35.0707 44.3517V18.0241L58.1171 31.1882L35.0707 44.3517Z" fill="#A40404"/>
</svg>
